Et Dieu... crea la femme aka And Woman... Was Created aka And God Created Woman

In sunny St. Tropez, a young sexpot loves one brother but marries the other.

Director: Roger Vadim
Stars: Brigitte Bardot, Curd Jürgens, Jean-Louis Trintignant

Format                                   : MPEG-4
Format profile                           : Base Media
Codec ID                                 : isom
File size                                : 1.45 GiB
Duration                                 : 1h 31mn
Overall bit rate mode                    : Variable
Overall bit rate                         : 2 275 Kbps
Movie name                               : Et Dieu... créa la femme*1956 /antusyrzhuk
Encoded date                             : UTC 2013-04-01 07:14:20
Tagged date                              : UTC 2013-04-01 07:14:20
Writing application                      : Yamb 2.0.0.8 [http://yamb.unite-video.com]

Video
ID                                       : 1
Format                                   : AVC
Format/Info                              : Advanced Video Codec
Format profile                           : High@L3.1
Format settings, CABAC                   : Yes
Format settings, ReFrames                : 5 frames
Codec ID                                 : avc1
Codec ID/Info                            : Advanced Video Coding
Duration                                 : 1h 31mn
Bit rate                                 : 2 127 Kbps
Maximum bit rate                         : 8 540 Kbps
Width                                    : 1 024 pixels
Height                                   : 416 pixels
Display aspect ratio                     : 2.462
Frame rate mode                          : Constant
Frame rate                               : 23.976 fps
Color space                              : YUV
Chroma subsampling                       : 4:2:0
Bit depth                                : 8 bits
Scan type                                : Progressive
Bits/(Pixel*Frame)                       : 0.208
Stream size                              : 1.36 GiB (93%)
Writing library                          : x264 core 130 r2273 b3065e6
Encoding settings                        : cabac=1 / ref=5 / deblock=1:-2:-3 / analyse=0x3:0x133 / me=umh / subme=9 / psy=1 / psy_rd=1.00:0.15 / mixed_ref=1 / me_range=16 / chroma_me=1 / trellis=1 / 8x8dct=1 / cqm=0 / deadzone=21,11 / fast_pskip=1 / chroma_qp_offset=-3 / threads=3 / lookahead_threads=1 / sliced_threads=0 / nr=0 / decimate=1 / interlaced=0 / bluray_compat=0 / constrained_intra=0 / bframes=3 / b_pyramid=2 / b_adapt=2 / b_bias=0 / direct=3 / weightb=1 / open_gop=0 / weightp=2 / keyint=240 / keyint_min=23 / scenecut=30 / intra_refresh=0 / rc_lookahead=50 / rc=2pass / mbtree=1 / bitrate=2127 / ratetol=1.0 / qcomp=0.60 / qpmin=0 / qpmax=69 / qpstep=4 / cplxblur=20.0 / qblur=0.5 / ip_ratio=1.40 / aq=1:1.00
Encoded date                             : UTC 2013-04-01 07:14:20
Tagged date                              : UTC 2013-04-01 07:15:53

Audio
ID                                       : 2
Format                                   : AAC
Format/Info                              : Advanced Audio Codec
Format profile                           : LC
Codec ID                                 : 40
Duration                                 : 1h 31mn
Bit rate mode                            : Variable
Bit rate                                 : 144 Kbps
Maximum bit rate                         : 175 Kbps
Channel(s)                               : 2 channels
Channel positions                        : Front: L R
Sampling rate                            : 48.0 KHz
Compression mode                         : Lossy
Stream size                              : 94.3 MiB (6%)
Language                                 : French
Encoded date                             : UTC 2013-04-01 07:15:43
Tagged date                              : UTC 2013-04-01 07:15:53

+ Ukrainian subtitles

Screenshots: 
http://imageshack.us/a/img715/4036/scr5u.png 
http://imageshack.us/a/img7/9745/scr4l.png 
http://imageshack.us/a/img23/2159/scr3w.png 
http://imageshack.us/a/img834/1843/scr2t.png 
http://imageshack.us/a/img267/6545/scr1h.png


English subtitles: